<?xml version="1.0" encoding="iso-8859-1"?>
<!-- Generator: Adobe Illustrator 19.0.0, SVG Export Plug-In . SVG Version: 6.00 Build 0)  -->
<svg version="1.1" id="Capa_1" xmlns="http://www.w3.org/2000/svg" xmlns:xlink="http://www.w3.org/1999/xlink" x="0px" y="0px"
	 viewBox="0 0 512.005 512.005" style="enable-background:new 0 0 512.005 512.005;" xml:space="preserve">
<path style="fill:#ECEFF1;" d="M480.003,224.003h-448v192c0,17.664,14.336,32,32,32h384c17.664,0,32-14.336,32-32V224.003z"/>
<g>
	<rect x="320.003" y="288.003" style="fill:#2196F3;" width="96" height="160"/>
	<rect x="96.003" y="288.003" style="fill:#2196F3;" width="128" height="96"/>
</g>
<g>
	<path style="fill:#F44336;" d="M144.003,64.003l-32,170.24c-11.84,13.44-28.8,21.76-48,21.76c-35.52,0-64.32-29.12-64-64.64
		c0.96-2.88,1.92-5.76,2.88-8.64l80-112c3.2-4.16,8-6.72,13.12-6.72H144.003z"/>
	<path style="fill:#F44336;" d="M304.003,64.003v170.24c-11.84,13.44-28.8,21.76-48,21.76s-36.16-8.32-48-21.76V64.003H304.003z"/>
</g>
<path style="fill:#D32F2F;" d="M144.003,64.003h64v170.24c-11.84,13.44-28.8,21.76-48,21.76s-36.16-8.32-48-21.76L144.003,64.003z"
	/>
<path style="fill:#F44336;" d="M512.003,191.363c0.32,35.52-28.48,64.64-64,64.64c-19.2,0-36.16-8.32-48-21.76l-32-170.24h48
	c5.12,0,9.92,2.56,13.12,6.72l80,112C510.083,185.603,511.043,188.483,512.003,191.363z"/>
<path style="fill:#D32F2F;" d="M400.003,234.243c-11.84,13.44-28.8,21.76-48,21.76s-36.16-8.32-48-21.76V64.003h64L400.003,234.243z
	"/>
<g>
</g>
<g>
</g>
<g>
</g>
<g>
</g>
<g>
</g>
<g>
</g>
<g>
</g>
<g>
</g>
<g>
</g>
<g>
</g>
<g>
</g>
<g>
</g>
<g>
</g>
<g>
</g>
<g>
</g>
</svg>
