<?xml version="1.0" encoding="iso-8859-1"?>
<!-- Generator: Adobe Illustrator 19.0.0, SVG Export Plug-In . SVG Version: 6.00 Build 0)  -->
<svg version="1.1" id="Capa_1" xmlns="http://www.w3.org/2000/svg" xmlns:xlink="http://www.w3.org/1999/xlink" x="0px" y="0px"
	 viewBox="0 0 512 512" style="enable-background:new 0 0 512 512;" xml:space="preserve">
<path style="fill:#607D8B;" d="M347.328,468.672l-64-64c-6.24-6.24-16.384-6.24-22.624,0c-3.136,3.136-4.704,7.2-4.704,11.264
	c0-4.064-1.568-8.128-4.672-11.264c-6.24-6.24-16.384-6.24-22.624,0l-64,64c-4.576,4.576-5.952,11.456-3.456,17.44
	C163.68,492.096,169.536,496,176,496h160c6.464,0,12.32-3.904,14.784-9.888S351.872,473.248,347.328,468.672z"/>
<path style="fill:#455A64;" d="M480,368V112c0-17.632-14.336-32-32-32H64c-17.632,0-32,14.368-32,32v256H480z"/>
<rect x="64" y="112" style="fill:#FAFAFA;" width="384" height="224"/>
<path style="fill:#B0BEC5;" d="M32,368v32c0,17.664,14.368,32,32,32h384c17.664,0,32-14.336,32-32v-32H32z"/>
<path style="fill:#2196F3;" d="M128,16l-16,170.24C100.16,199.68,83.2,208,64,208c-35.2,0-64-28.8-64-64c0-2.88,0.64-5.44,2.24-8
	l64-112c2.56-4.8,8-8,13.76-8H128z"/>
<g>
	<path style="fill:#1976D2;" d="M208,16v170.24C196.16,199.68,179.2,208,160,208s-36.16-8.32-48-21.76L128,16H208z"/>
	<path style="fill:#1976D2;" d="M400,186.24C388.16,199.68,371.2,208,352,208s-36.16-8.32-48-21.76V16h80L400,186.24z"/>
</g>
<g>
	<path style="fill:#2196F3;" d="M208,16h96v170.24C292.16,199.68,275.2,208,256,208s-36.16-8.32-48-21.76V16z"/>
	<path style="fill:#2196F3;" d="M512,144c0,35.2-28.8,64-64,64c-19.2,0-36.16-8.32-48-21.76L384,16h48c5.76,0,10.88,3.2,13.76,8
		l64,112C511.36,138.56,512,141.12,512,144z"/>
</g>
<g>
</g>
<g>
</g>
<g>
</g>
<g>
</g>
<g>
</g>
<g>
</g>
<g>
</g>
<g>
</g>
<g>
</g>
<g>
</g>
<g>
</g>
<g>
</g>
<g>
</g>
<g>
</g>
<g>
</g>
</svg>
